<?xml version="1.0" standalone="no"?>
<!DOCTYPE svg PUBLIC "-//W3C//DTD SVG 20010904//EN"
 "http://www.w3.org/TR/2001/REC-SVG-20010904/DTD/svg10.dtd">
<svg version="1.0" xmlns="http://www.w3.org/2000/svg"
 width="64.000000pt" height="64.000000pt" viewBox="0 0 64.000000 64.000000"
 preserveAspectRatio="xMidYMid meet">

<g transform="translate(0.000000,64.000000) scale(0.100000,-0.100000)"
fill="#000000" stroke="none">
<path d="M215 587 c-28 -13 -71 -47 -97 -76 -59 -66 -82 -131 -76 -215 9 -107
63 -187 160 -235 111 -56 252 -39 342 41 26 22 46 46 46 54 0 31 -31 25 -74
-13 -79 -69 -199 -85 -293 -38 -155 77 -177 283 -43 398 168 144 437 -4 356
-196 -16 -39 -79 -97 -106 -97 -30 0 -25 29 20 142 22 55 37 104 34 109 -8 13
-44 11 -44 -2 0 -8 -4 -8 -14 0 -51 42 -133 31 -188 -26 -50 -53 -68 -93 -68
-157 0 -47 4 -58 29 -84 37 -37 81 -46 126 -28 30 13 38 13 63 1 57 -29 143
20 186 107 45 91 29 193 -42 264 -49 49 -98 68 -187 72 -68 2 -88 -1 -130 -21z
m180 -173 c17 -18 15 -29 -22 -114 -31 -71 -49 -90 -86 -90 -43 0 -67 25 -67
72 0 48 20 87 60 122 36 30 90 35 115 10z"/>
</g>
</svg>
