<?xml version="1.0" standalone="no"?>
<!DOCTYPE svg PUBLIC "-//W3C//DTD SVG 20010904//EN"
 "http://www.w3.org/TR/2001/REC-SVG-20010904/DTD/svg10.dtd">
<svg version="1.0" xmlns="http://www.w3.org/2000/svg"
 width="225.000000pt" height="225.000000pt" viewBox="0 0 225.000000 225.000000"
 preserveAspectRatio="xMidYMid meet">
<metadata>
Created by potrace 1.15, written by Peter Selinger 2001-2017
</metadata>
<g transform="translate(0.000000,225.000000) scale(0.100000,-0.100000)"
fill="#000000" stroke="none">
<path d="M720 2210 l0 -40 -40 0 -40 0 0 -40 0 -40 -40 0 -40 0 0 -40 0 -40
-40 0 -40 0 0 -40 0 -40 -40 0 -40 0 0 -40 0 -40 -40 0 -40 0 0 -40 0 -40 -40
0 -40 0 0 -40 0 -40 -40 0 -40 0 0 -40 0 -40 -40 0 -40 0 0 -40 0 -40 -40 0
-41 0 3 -687 c3 -639 4 -690 21 -721 10 -19 22 -30 29 -26 7 4 8 3 4 -5 -10
-16 10 -38 58 -64 l41 -22 948 -3 c623 -2 961 1 986 8 57 15 103 51 131 100
l25 45 3 925 c2 509 0 949 -3 978 -4 34 -10 50 -17 46 -7 -4 -8 -2 -4 5 12 19
-33 80 -82 109 l-47 27 -687 3 -688 3 0 -41z m1027 -205 c0 -8 -4 -12 -8 -10
-12 8 -39 -6 -33 -17 3 -5 0 -8 -7 -7 -8 2 -32 -7 -55 -18 -41 -22 -139 -45
-149 -35 -3 3 -13 7 -22 8 -10 2 1 -15 27 -40 25 -24 49 -41 54 -38 5 3 6 0 3
-6 -4 -5 4 -32 18 -59 34 -68 58 -263 33 -263 -5 0 -8 -7 -8 -15 0 -34 -51
-113 -108 -167 -33 -31 -57 -60 -53 -64 3 -4 1 -4 -6 -1 -15 9 -70 -58 -79
-95 -9 -44 13 -85 70 -128 40 -31 53 -36 66 -27 12 9 13 8 4 -1 -8 -10 11 -34
76 -100 99 -99 122 -148 124 -262 0 -99 -32 -174 -111 -260 -51 -55 -82 -78
-146 -110 -111 -54 -181 -71 -323 -77 -147 -7 -255 12 -360 63 -224 107 -259
348 -76 515 95 87 208 129 404 151 86 10 105 15 96 25 -5 7 -15 10 -21 6 -5
-3 -7 -1 -4 4 4 6 0 25 -9 42 -22 44 -29 103 -16 140 l11 31 -48 0 c-72 0
-148 17 -210 47 -31 15 -61 27 -68 26 -6 0 -9 6 -6 13 3 8 0 15 -6 15 -6 1
-17 2 -23 3 -7 0 -13 8 -14 16 -2 30 -4 32 -21 19 -14 -10 -15 -10 -7 0 9 10
4 27 -20 73 -26 52 -32 74 -35 150 -3 78 -5 87 -17 71 -12 -16 -12 -14 -2 14
8 22 15 28 20 20 5 -8 8 -5 8 9 0 11 11 42 24 67 13 26 20 50 15 53 -10 6 0
34 12 34 4 0 6 -8 2 -17 -3 -10 -4 -16 -2 -13 2 3 29 32 59 64 30 32 49 55 41
51 -10 -6 -12 -4 -7 4 4 6 12 9 17 5 6 -3 18 1 27 9 23 20 96 54 133 62 16 4
27 11 24 16 -4 5 0 7 7 4 7 -3 47 -1 88 4 41 4 197 9 346 10 231 1 271 -1 271
-14z"/>
<path d="M1011 1904 c-88 -44 -129 -136 -115 -264 15 -143 83 -283 165 -337
38 -25 52 -28 124 -28 72 0 86 3 123 28 66 43 87 93 87 207 -1 79 -6 109 -31
180 -17 47 -35 84 -41 83 -6 -1 -10 5 -9 15 0 9 -5 16 -12 14 -8 -1 -11 2 -7
8 9 15 -66 86 -110 104 -55 23 -113 20 -174 -10z"/>
<path d="M1135 874 c-105 -13 -219 -49 -208 -67 3 -6 1 -7 -6 -3 -17 11 -78
-31 -106 -72 -39 -57 -51 -128 -32 -193 41 -139 185 -218 397 -220 143 -1 228
27 290 97 48 56 63 99 57 167 -6 63 -48 144 -69 131 -6 -4 -8 -3 -5 3 9 14
-71 86 -85 77 -7 -4 -8 -3 -4 4 8 13 -28 35 -39 24 -5 -4 -5 -2 -2 4 3 6 -7
21 -23 32 -29 22 -75 26 -165 16z"/>
</g>
</svg>
